<svg xmlns="http://www.w3.org/2000/svg" viewBox="0 0 25 25" width="25" height="25">
	<defs>
		<clipPath clipPathUnits="userSpaceOnUse" id="cp1">
			<path d="M-1100 -15L266 -15L266 4069L-1100 4069Z" />
		</clipPath>
	</defs>
	<style>
		tspan { white-space:pre }
		.shp0 { fill: #fafafa } 
	</style>
	<g id="Haley Premium – 2" clip-path="url(#cp1)">
		<g id="Group 3131">
			<path id="facebook" class="shp0" d="M21.76 0L2.72 0C1.22 0 0 1.22 0 2.72L0 21.76C0 23.26 1.22 24.48 2.72 24.48L12.24 24.48L12.24 14.96L9.52 14.96L9.52 11.59L12.24 11.59L12.24 8.81C12.24 5.86 13.89 3.8 17.36 3.8L19.82 3.8L19.82 7.34L18.19 7.34C16.84 7.34 16.32 8.36 16.32 9.3L16.32 11.6L19.82 11.6L19.04 14.96L16.32 14.96L16.32 24.48L21.76 24.48C23.26 24.48 24.48 23.26 24.48 21.76L24.48 2.72C24.48 1.22 23.26 0 21.76 0L21.76 0Z" />
		</g>
	</g>
</svg>