<svg xmlns="http://www.w3.org/2000/svg" viewBox="0 0 25 25" width="25" height="25">
	<defs>
		<clipPath clipPathUnits="userSpaceOnUse" id="cp1">
			<path d="M-1224 -15L142 -15L142 4069L-1224 4069Z" />
		</clipPath>
	</defs>
	<style>
		tspan { white-space:pre }
		.shp0 { fill: #fafafa } 
		.shp1 { fill: #e30a7d } 
	</style>
	<g id="Haley Premium – 2" clip-path="url(#cp1)">
		<g id="Group 3131">
			<g id="Group 3128">
				<g id="Folder 3">
					<path id="Rectangle 162" class="shp0" d="M2 0L22.49 0C23.59 0 24.49 0.89 24.49 2L24.49 22.49C24.49 23.59 23.59 24.49 22.49 24.49L2 24.49C0.89 24.49 0 23.59 0 22.49L0 2C0 0.89 0.89 0 2 0Z" />
					<path id="linkedin" class="shp1" d="M6.11 18.62L6.11 9.59L8.89 9.59L8.89 18.62L6.11 18.62ZM15.84 18.62L15.84 13.85C15.84 12.74 15.42 11.9 14.45 11.9C13.71 11.9 13.34 12.5 13.15 12.99C13.08 13.17 13.06 13.41 13.06 13.66L13.06 18.62L10.28 18.62L10.28 12.67C10.28 11.6 10.25 10.7 10.21 9.93L12.71 9.93L12.83 11.13L12.88 11.13C13.24 10.56 14.1 9.74 15.54 9.74C17.3 9.74 18.62 10.91 18.62 13.45L18.62 18.62L15.84 18.62ZM6.11 7.54C6.11 6.78 6.64 6.11 7.5 6.11C8.36 6.11 8.88 6.74 8.89 7.5C8.89 8.24 8.4 8.87 7.5 8.87C6.66 8.87 6.11 8.28 6.11 7.54Z" />
				</g>
			</g>
		</g>
	</g>
</svg>