<svg xmlns="http://www.w3.org/2000/svg" viewBox="0 0 26 25" width="26" height="25">
	<defs>
		<clipPath clipPathUnits="userSpaceOnUse" id="cp1">
			<path d="M-154 -3912L1212 -3912L1212 172L-154 172Z" />
		</clipPath>
	</defs>
	<style>
		tspan { white-space:pre }
		.shp0 { fill: #fafafa } 
		.shp1 { fill: #000000 } 
	</style>
	<g id="Haley Premium – 2" clip-path="url(#cp1)">
		<g id="Group 3167">
			<g id="Group 3160">
				<g id="Group 3130">
					<g id="Folder 3">
						<path id="Rectangle 161" class="shp0" d="M3 0L23.49 0C24.59 0 25.49 0.89 25.49 2L25.49 22.49C25.49 23.59 24.59 24.49 23.49 24.49L3 24.49C1.89 24.49 1 23.59 1 22.49L1 2C1 0.89 1.89 0 3 0Z" />
						<path id="twitter" class="shp1" d="M19.29 9.41C19.3 9.55 19.3 9.7 19.3 9.84C19.3 14.26 15.94 19.35 9.79 19.35C7.9 19.35 6.15 18.8 4.67 17.85C4.93 17.88 5.19 17.9 5.46 17.9C7.03 17.9 8.47 17.36 9.62 16.47C8.15 16.44 6.92 15.48 6.49 14.15C6.7 14.19 6.91 14.21 7.12 14.21C7.43 14.21 7.72 14.17 8 14.09C6.47 13.78 5.32 12.43 5.32 10.81C5.32 10.8 5.32 10.78 5.32 10.77C5.77 11.02 6.29 11.17 6.84 11.19C5.94 10.59 5.35 9.57 5.35 8.4C5.35 7.79 5.51 7.22 5.8 6.72C7.45 8.75 9.91 10.08 12.69 10.22C12.64 9.97 12.61 9.72 12.61 9.45C12.61 7.61 14.1 6.11 15.95 6.11C16.91 6.11 17.78 6.52 18.39 7.17C19.15 7.02 19.87 6.74 20.51 6.36C20.26 7.14 19.73 7.79 19.04 8.21C19.72 8.12 20.36 7.95 20.96 7.68C20.51 8.35 19.95 8.94 19.29 9.41L19.29 9.41Z" />
					</g>
				</g>
			</g>
		</g>
	</g>
</svg>