<svg xmlns="http://www.w3.org/2000/svg" viewBox="0 0 26 25" width="26" height="25">
	<defs>
		<clipPath clipPathUnits="userSpaceOnUse" id="cp1">
			<path d="M-237 -3912L1129 -3912L1129 172L-237 172Z" />
		</clipPath>
	</defs>
	<style>
		tspan { white-space:pre }
		.shp0 { fill: #fafafa } 
		.shp1 { fill: #000000 } 
	</style>
	<g id="Haley Premium – 2" clip-path="url(#cp1)">
		<g id="Group 3167">
			<g id="Group 3160">
				<g id="Group 3128">
					<g id="Folder 5">
						<path id="Rectangle 162" class="shp0" d="M3 0L23.49 0C24.59 0 25.49 0.89 25.49 2L25.49 22.49C25.49 23.59 24.59 24.49 23.49 24.49L3 24.49C1.89 24.49 1 23.59 1 22.49L1 2C1 0.89 1.89 0 3 0Z" />
						<path id="linkedin" class="shp1" d="M7.11 18.62L7.11 9.59L9.89 9.59L9.89 18.62L7.11 18.62ZM16.84 18.62L16.84 13.85C16.84 12.74 16.42 11.9 15.45 11.9C14.71 11.9 14.34 12.5 14.15 12.99C14.08 13.17 14.06 13.41 14.06 13.66L14.06 18.62L11.28 18.62L11.28 12.67C11.28 11.6 11.25 10.7 11.21 9.93L13.71 9.93L13.83 11.13L13.88 11.13C14.24 10.56 15.1 9.74 16.54 9.74C18.3 9.74 19.62 10.91 19.62 13.45L19.62 18.62L16.84 18.62ZM7.11 7.54C7.11 6.78 7.64 6.11 8.5 6.11C9.36 6.11 9.88 6.74 9.89 7.5C9.89 8.24 9.4 8.88 8.5 8.88C7.66 8.88 7.11 8.28 7.11 7.54Z" />
					</g>
				</g>
			</g>
		</g>
	</g>
</svg>