<svg xmlns="http://www.w3.org/2000/svg" viewBox="0 0 26 25" width="26" height="25">
	<defs>
		<clipPath clipPathUnits="userSpaceOnUse" id="cp1">
			<path d="M-195 -3912L1171 -3912L1171 172L-195 172Z" />
		</clipPath>
	</defs>
	<style>
		tspan { white-space:pre }
		.shp0 { fill: #fafafa } 
		.shp1 { fill: #000000 } 
	</style>
	<g id="Haley Premium – 2" clip-path="url(#cp1)">
		<g id="Group 3167">
			<g id="Group 3160">
				<g id="Group 3129">
					<g id="google-plus">
						<g id="Folder 4">
							<path id="Rectangle 163" class="shp0" d="M3 0L23.49 0C24.59 0 25.49 0.89 25.49 2L25.49 22.49C25.49 23.59 24.59 24.49 23.49 24.49L3 24.49C1.89 24.49 1 23.59 1 22.49L1 2C1 0.89 1.89 0 3 0Z" />
							<path id="Path 1870" class="shp1" d="M20.74 9.45L19.06 9.45L19.06 11.12L17.39 11.12L17.39 12.8L19.06 12.8L19.06 14.47L20.74 14.47L20.74 12.8L22.41 12.8L22.41 11.12L20.74 11.12L20.74 9.45Z" />
							<path id="Path 1871" class="shp1" d="M9.75 17.51C13.07 17.51 15.28 15.18 15.28 11.89C15.28 11.51 15.24 11.22 15.19 10.93L9.75 10.93L9.75 12.91L13.02 12.91C12.89 13.75 12.03 15.39 9.75 15.39C7.79 15.39 6.19 13.76 6.19 11.75C6.19 9.74 7.79 8.12 9.75 8.12C10.88 8.12 11.62 8.6 12.05 9.01L13.61 7.51C12.6 6.57 11.31 6 9.75 6C6.57 6 4 8.57 4 11.75C4 14.93 6.57 17.51 9.75 17.51L9.75 17.51Z" />
						</g>
					</g>
				</g>
			</g>
		</g>
	</g>
</svg>