<svg xmlns="http://www.w3.org/2000/svg" viewBox="0 0 25 25" width="25" height="25">
	<defs>
		<clipPath clipPathUnits="userSpaceOnUse" id="cp1">
			<path d="M-1182 -15L184 -15L184 4069L-1182 4069Z" />
		</clipPath>
	</defs>
	<style>
		tspan { white-space:pre }
		.shp0 { fill: #fafafa } 
		.shp1 { fill: #e30a7d } 
	</style>
	<g id="Haley Premium – 2" clip-path="url(#cp1)">
		<g id="Group 3131">
			<g id="Group 3129">
				<g id="google-plus">
					<g id="Folder 2">
						<path id="Rectangle 163" class="shp0" d="M2 0L22.49 0C23.59 0 24.49 0.89 24.49 2L24.49 22.49C24.49 23.59 23.59 24.49 22.49 24.49L2 24.49C0.89 24.49 0 23.59 0 22.49L0 2C0 0.89 0.89 0 2 0Z" />
						<path id="Path 1870" class="shp1" d="M19.74 9.45L18.06 9.45L18.06 11.12L16.39 11.12L16.39 12.8L18.06 12.8L18.06 14.47L19.74 14.47L19.74 12.8L21.41 12.8L21.41 11.12L19.74 11.12L19.74 9.45Z" />
						<path id="Path 1871" class="shp1" d="M8.75 17.51C12.07 17.51 14.28 15.18 14.28 11.89C14.28 11.51 14.24 11.22 14.19 10.93L8.76 10.93L8.76 12.91L12.02 12.91C11.89 13.75 11.03 15.39 8.76 15.39C6.79 15.39 5.19 13.76 5.19 11.75C5.19 9.74 6.79 8.12 8.76 8.12C9.88 8.12 10.62 8.6 11.05 9.01L12.61 7.51C11.6 6.57 10.31 6 8.75 6C5.58 6 3 8.57 3 11.75C3 14.93 5.58 17.51 8.75 17.51L8.75 17.51Z" />
					</g>
				</g>
			</g>
		</g>
	</g>
</svg>