<svg xmlns="http://www.w3.org/2000/svg" viewBox="0 0 18 22" width="18" height="22">
	<defs>
		<clipPath clipPathUnits="userSpaceOnUse" id="cp1">
			<path d="M-945 -3776L421 -3776L421 308L-945 308Z" />
		</clipPath>
	</defs>
	<style>
		tspan { white-space:pre }
		.shp0 { fill: #fafafa } 
	</style>
	<g id="Haley Premium – 2" clip-path="url(#cp1)">
		<g id="Group 3164">
			<g id="Group 3163">
				<path id="mapmarker" fill-rule="evenodd" class="shp0" d="M9.19 0C13.71 0 17.38 3.67 17.38 8.19C17.38 12.71 10.49 21.59 9.19 21.59C7.43 21.59 1 12.71 1 8.19C1 3.67 4.67 0 9.19 0L9.19 0ZM13.31 8.06C13.31 5.76 11.45 3.9 9.15 3.9C6.85 3.9 4.99 5.76 4.99 8.06C4.99 10.36 6.85 12.22 9.15 12.22C11.45 12.22 13.31 10.36 13.31 8.06Z" />
			</g>
		</g>
	</g>
</svg>