<svg xmlns="http://www.w3.org/2000/svg" viewBox="0 0 18 18" width="18" height="18">
	<defs>
		<clipPath clipPathUnits="userSpaceOnUse" id="cp1">
			<path d="M-114 -19L1252 -19L1252 4065L-114 4065Z" />
		</clipPath>
	</defs>
	<style>
		tspan { white-space:pre }
		.shp0 { fill: #ffffff } 
	</style>
	<g id="Haley Premium – 2" clip-path="url(#cp1)">
		<g id="Group 3116">
			<path id="phone" class="shp0" d="M1.12 0.64C1.81 -0.05 3.88 -0.16 3.9 0.2C3.91 0.57 5.76 4.6 5.78 4.96C5.8 5.32 4.56 6.56 4.2 6.93C3.84 7.28 6.62 10.43 6.67 10.49C6.73 10.54 9.87 13.33 10.22 12.97C10.59 12.6 11.82 11.37 12.18 11.38C12.55 11.4 16.57 13.25 16.93 13.27C17.29 13.28 17.18 15.36 16.49 16.05C15.91 16.64 12.87 18.77 7.59 14.96C7.01 14.63 6.1 13.86 4.71 12.47C4.71 12.47 4.71 12.47 4.7 12.47C4.7 12.46 4.7 12.46 4.7 12.46C4.7 12.46 4.7 12.46 4.7 12.46C4.7 12.46 4.7 12.46 4.7 12.46C3.31 11.06 2.54 10.14 2.21 9.56C-1.59 4.27 0.54 1.23 1.12 0.64L1.12 0.64Z" />
		</g>
	</g>
</svg>