<svg xmlns="http://www.w3.org/2000/svg" viewBox="0 0 19 19" width="19" height="19">
	<defs>
		<clipPath clipPathUnits="userSpaceOnUse" id="cp1">
			<path d="M-946 -3843L420 -3843L420 241L-946 241Z" />
		</clipPath>
	</defs>
	<style>
		tspan { white-space:pre }
		.shp0 { fill: #fafafa } 
	</style>
	<g id="Haley Premium – 2" clip-path="url(#cp1)">
		<g id="Group 3164">
			<g id="Group 3161">
				<path id="phone" class="shp0" d="M1.22 0.7C1.97 -0.05 4.23 -0.18 4.25 0.22C4.26 0.62 6.28 5.01 6.3 5.4C6.31 5.8 4.97 7.15 4.57 7.54C4.18 7.94 7.21 11.36 7.27 11.43C7.33 11.49 10.75 14.52 11.14 14.13C11.53 13.73 12.88 12.38 13.27 12.4C13.67 12.42 18.05 14.44 18.45 14.46C18.84 14.47 18.72 16.74 17.97 17.48C17.33 18.12 14.02 20.45 8.27 16.3C7.64 15.93 6.64 15.1 5.13 13.58C5.13 13.58 5.13 13.58 5.13 13.58C5.12 13.58 5.12 13.58 5.12 13.58C5.12 13.58 5.12 13.57 5.12 13.57C5.12 13.57 5.12 13.57 5.12 13.57C3.6 12.05 2.77 11.05 2.41 10.42C-1.73 4.65 0.59 1.34 1.22 0.7L1.22 0.7Z" />
			</g>
		</g>
	</g>
</svg>